<?xml version="1.0" encoding="utf-8" standalone="no"?>
<!DOCTYPE svg PUBLIC "-//W3C//DTD SVG 1.1//EN"
  "http://www.w3.org/Graphics/SVG/1.1/DTD/svg11.dtd">
<!-- Created with matplotlib (https://matplotlib.org/) -->
<svg height="339.139375pt" version="1.1" viewBox="0 0 1143.7625 339.139375" width="1143.7625pt" xmlns="http://www.w3.org/2000/svg" xmlns:xlink="http://www.w3.org/1999/xlink">
 <metadata>
  <rdf:RDF xmlns:cc="http://creativecommons.org/ns#" xmlns:dc="http://purl.org/dc/elements/1.1/" xmlns:rdf="http://www.w3.org/1999/02/22-rdf-syntax-ns#">
   <cc:Work>
    <dc:type rdf:resource="http://purl.org/dc/dcmitype/StillImage"/>
    <dc:date>2021-02-17T19:39:48.136930</dc:date>
    <dc:format>image/svg+xml</dc:format>
    <dc:creator>
     <cc:Agent>
      <dc:title>Matplotlib v3.3.3, https://matplotlib.org/</dc:title>
     </cc:Agent>
    </dc:creator>
   </cc:Work>
  </rdf:RDF>
 </metadata>
 <defs>
  <style type="text/css">*{stroke-linecap:butt;stroke-linejoin:round;}</style>
 </defs>
 <g id="figure_1">
  <g id="patch_1">
   <path d="M 0 339.139375 
L 1143.7625 339.139375 
L 1143.7625 0 
L 0 0 
z
" style="fill:none;"/>
  </g>
  <g id="axes_1">
   <g id="patch_2">
    <path d="M 20.5625 294.118125 
L 1136.5625 294.118125 
L 1136.5625 22.318125 
L 20.5625 22.318125 
z
" style="fill:#ffffff;"/>
   </g>
   <g id="matplotlib.axis_1">
    <g id="xtick_1">
     <g id="text_1">
      <!-- Classical -->
      <g transform="translate(31.218125 327.2125)rotate(-90)scale(0.06 -0.06)">
       <defs>
        <path d="M 64.40625 67.28125 
L 64.40625 56.890625 
Q 59.421875 61.53125 53.78125 63.8125 
Q 48.140625 66.109375 41.796875 66.109375 
Q 29.296875 66.109375 22.65625 58.46875 
Q 16.015625 50.828125 16.015625 36.375 
Q 16.015625 21.96875 22.65625 14.328125 
Q 29.296875 6.6875 41.796875 6.6875 
Q 48.140625 6.6875 53.78125 8.984375 
Q 59.421875 11.28125 64.40625 15.921875 
L 64.40625 5.609375 
Q 59.234375 2.09375 53.4375 0.328125 
Q 47.65625 -1.421875 41.21875 -1.421875 
Q 24.65625 -1.421875 15.125 8.703125 
Q 5.609375 18.84375 5.609375 36.375 
Q 5.609375 53.953125 15.125 64.078125 
Q 24.65625 74.21875 41.21875 74.21875 
Q 47.75 74.21875 53.53125 72.484375 
Q 59.328125 70.75 64.40625 67.28125 
z
" id="DejaVuSans-67"/>
        <path d="M 9.421875 75.984375 
L 18.40625 75.984375 
L 18.40625 0 
L 9.421875 0 
z
" id="DejaVuSans-108"/>
        <path d="M 34.28125 27.484375 
Q 23.390625 27.484375 19.1875 25 
Q 14.984375 22.515625 14.984375 16.5 
Q 14.984375 11.71875 18.140625 8.90625 
Q 21.296875 6.109375 26.703125 6.109375 
Q 34.1875 6.109375 38.703125 11.40625 
Q 43.21875 16.703125 43.21875 25.484375 
L 43.21875 27.484375 
z
M 52.203125 31.203125 
L 52.203125 0 
L 43.21875 0 
L 43.21875 8.296875 
Q 40.140625 3.328125 35.546875 0.953125 
Q 30.953125 -1.421875 24.3125 -1.421875 
Q 15.921875 -1.421875 10.953125 3.296875 
Q 6 8.015625 6 15.921875 
Q 6 25.140625 12.171875 29.828125 
Q 18.359375 34.515625 30.609375 34.515625 
L 43.21875 34.515625 
L 43.21875 35.40625 
Q 43.21875 41.609375 39.140625 45 
Q 35.0625 48.390625 27.6875 48.390625 
Q 23 48.390625 18.546875 47.265625 
Q 14.109375 46.140625 10.015625 43.890625 
L 10.015625 52.203125 
Q 14.9375 54.109375 19.578125 55.046875 
Q 24.21875 56 28.609375 56 
Q 40.484375 56 46.34375 49.84375 
Q 52.203125 43.703125 52.203125 31.203125 
z
" id="DejaVuSans-97"/>
        <path d="M 44.28125 53.078125 
L 44.28125 44.578125 
Q 40.484375 46.53125 36.375 47.5 
Q 32.28125 48.484375 27.875 48.484375 
Q 21.1875 48.484375 17.84375 46.4375 
Q 14.5 44.390625 14.5 40.28125 
Q 14.5 37.15625 16.890625 35.375 
Q 19.28125 33.59375 26.515625 31.984375 
L 29.59375 31.296875 
Q 39.15625 29.25 43.1875 25.515625 
Q 47.21875 21.78125 47.21875 15.09375 
Q 47.21875 7.46875 41.1875 3.015625 
Q 35.15625 -1.421875 24.609375 -1.421875 
Q 20.21875 -1.421875 15.453125 -0.5625 
Q 10.6875 0.296875 5.421875 2 
L 5.421875 11.28125 
Q 10.40625 8.6875 15.234375 7.390625 
Q 20.0625 6.109375 24.8125 6.109375 
Q 31.15625 6.109375 34.5625 8.28125 
Q 37.984375 10.453125 37.984375 14.40625 
Q 37.984375 18.0625 35.515625 20.015625 
Q 33.0625 21.96875 24.703125 23.78125 
L 21.578125 24.515625 
Q 13.234375 26.265625 9.515625 29.90625 
Q 5.8125 33.546875 5.8125 39.890625 
Q 5.8125 47.609375 11.28125 51.796875 
Q 16.75 56 26.8125 56 
Q 31.78125 56 36.171875 55.265625 
Q 40.578125 54.546875 44.28125 53.078125 
z
" id="DejaVuSans-115"/>
        <path d="M 9.421875 54.6875 
L 18.40625 54.6875 
L 18.40625 0 
L 9.421875 0 
z
M 9.421875 75.984375 
L 18.40625 75.984375 
L 18.40625 64.59375 
L 9.421875 64.59375 
z
" id="DejaVuSans-105"/>
        <path d="M 48.78125 52.59375 
L 48.78125 44.1875 
Q 44.96875 46.296875 41.140625 47.34375 
Q 37.3125 48.390625 33.40625 48.390625 
Q 24.65625 48.390625 19.8125 42.84375 
Q 14.984375 37.3125 14.984375 27.296875 
Q 14.984375 17.28125 19.8125 11.734375 
Q 24.65625 6.203125 33.40625 6.203125 
Q 37.3125 6.203125 41.140625 7.25 
Q 44.96875 8.296875 48.78125 10.40625 
L 48.78125 2.09375 
Q 45.015625 0.34375 40.984375 -0.53125 
Q 36.96875 -1.421875 32.421875 -1.421875 
Q 20.0625 -1.421875 12.78125 6.34375 
Q 5.515625 14.109375 5.515625 27.296875 
Q 5.515625 40.671875 12.859375 48.328125 
Q 20.21875 56 33.015625 56 
Q 37.15625 56 41.109375 55.140625 
Q 45.0625 54.296875 48.78125 52.59375 
z
" id="DejaVuSans-99"/>
       </defs>
       <use xlink:href="#DejaVuSans-67"/>
       <use x="69.824219" xlink:href="#DejaVuSans-108"/>
       <use x="97.607422" xlink:href="#DejaVuSans-97"/>
       <use x="158.886719" xlink:href="#DejaVuSans-115"/>
       <use x="210.986328" xlink:href="#DejaVuSans-115"/>
       <use x="263.085938" xlink:href="#DejaVuSans-105"/>
       <use x="290.869141" xlink:href="#DejaVuSans-99"/>
       <use x="345.849609" xlink:href="#DejaVuSans-97"/>
       <use x="407.128906" xlink:href="#DejaVuSans-108"/>
      </g>
     </g>
    </g>
    <g id="xtick_2">
     <g id="text_2">
      <!-- Classical -->
      <g transform="translate(49.218125 327.2125)rotate(-90)scale(0.06 -0.06)">
       <use xlink:href="#DejaVuSans-67"/>
       <use x="69.824219" xlink:href="#DejaVuSans-108"/>
       <use x="97.607422" xlink:href="#DejaVuSans-97"/>
       <use x="158.886719" xlink:href="#DejaVuSans-115"/>
       <use x="210.986328" xlink:href="#DejaVuSans-115"/>
       <use x="263.085938" xlink:href="#DejaVuSans-105"/>
       <use x="290.869141" xlink:href="#DejaVuSans-99"/>
       <use x="345.849609" xlink:href="#DejaVuSans-97"/>
       <use x="407.128906" xlink:href="#DejaVuSans-108"/>
      </g>
     </g>
    </g>
    <g id="xtick_3">
     <g id="text_3">
      <!-- Classical -->
      <g transform="translate(67.218125 327.2125)rotate(-90)scale(0.06 -0.06)">
       <use xlink:href="#DejaVuSans-67"/>
       <use x="69.824219" xlink:href="#DejaVuSans-108"/>
       <use x="97.607422" xlink:href="#DejaVuSans-97"/>
       <use x="158.886719" xlink:href="#DejaVuSans-115"/>
       <use x="210.986328" xlink:href="#DejaVuSans-115"/>
       <use x="263.085938" xlink:href="#DejaVuSans-105"/>
       <use x="290.869141" xlink:href="#DejaVuSans-99"/>
       <use x="345.849609" xlink:href="#DejaVuSans-97"/>
       <use x="407.128906" xlink:href="#DejaVuSans-108"/>
      </g>
     </g>
    </g>
    <g id="xtick_4">
     <g id="text_4">
      <!-- Rock -->
      <g transform="translate(85.218125 315.461875)rotate(-90)scale(0.06 -0.06)">
       <defs>
        <path d="M 44.390625 34.1875 
Q 47.5625 33.109375 50.5625 29.59375 
Q 53.5625 26.078125 56.59375 19.921875 
L 66.609375 0 
L 56 0 
L 46.6875 18.703125 
Q 43.0625 26.03125 39.671875 28.421875 
Q 36.28125 30.8125 30.421875 30.8125 
L 19.671875 30.8125 
L 19.671875 0 
L 9.8125 0 
L 9.8125 72.90625 
L 32.078125 72.90625 
Q 44.578125 72.90625 50.734375 67.671875 
Q 56.890625 62.453125 56.890625 51.90625 
Q 56.890625 45.015625 53.6875 40.46875 
Q 50.484375 35.9375 44.390625 34.1875 
z
M 19.671875 64.796875 
L 19.671875 38.921875 
L 32.078125 38.921875 
Q 39.203125 38.921875 42.84375 42.21875 
Q 46.484375 45.515625 46.484375 51.90625 
Q 46.484375 58.296875 42.84375 61.546875 
Q 39.203125 64.796875 32.078125 64.796875 
z
" id="DejaVuSans-82"/>
        <path d="M 30.609375 48.390625 
Q 23.390625 48.390625 19.1875 42.75 
Q 14.984375 37.109375 14.984375 27.296875 
Q 14.984375 17.484375 19.15625 11.84375 
Q 23.34375 6.203125 30.609375 6.203125 
Q 37.796875 6.203125 41.984375 11.859375 
Q 46.1875 17.53125 46.1875 27.296875 
Q 46.1875 37.015625 41.984375 42.703125 
Q 37.796875 48.390625 30.609375 48.390625 
z
M 30.609375 56 
Q 42.328125 56 49.015625 48.375 
Q 55.71875 40.765625 55.71875 27.296875 
Q 55.71875 13.875 49.015625 6.21875 
Q 42.328125 -1.421875 30.609375 -1.421875 
Q 18.84375 -1.421875 12.171875 6.21875 
Q 5.515625 13.875 5.515625 27.296875 
Q 5.515625 40.765625 12.171875 48.375 
Q 18.84375 56 30.609375 56 
z
" id="DejaVuSans-111"/>
        <path d="M 9.078125 75.984375 
L 18.109375 75.984375 
L 18.109375 31.109375 
L 44.921875 54.6875 
L 56.390625 54.6875 
L 27.390625 29.109375 
L 57.625 0 
L 45.90625 0 
L 18.109375 26.703125 
L 18.109375 0 
L 9.078125 0 
z
" id="DejaVuSans-107"/>
       </defs>
       <use xlink:href="#DejaVuSans-82"/>
       <use x="64.982422" xlink:href="#DejaVuSans-111"/>
       <use x="126.164062" xlink:href="#DejaVuSans-99"/>
       <use x="181.144531" xlink:href="#DejaVuSans-107"/>
      </g>
     </g>
    </g>
    <g id="xtick_5">
     <g id="text_5">
      <!-- Rock -->
      <g transform="translate(103.218125 315.461875)rotate(-90)scale(0.06 -0.06)">
       <use xlink:href="#DejaVuSans-82"/>
       <use x="64.982422" xlink:href="#DejaVuSans-111"/>
       <use x="126.164062" xlink:href="#DejaVuSans-99"/>
       <use x="181.144531" xlink:href="#DejaVuSans-107"/>
      </g>
     </g>
    </g>
    <g id="xtick_6">
     <g id="text_6">
      <!-- Rock -->
      <g transform="translate(121.218125 315.461875)rotate(-90)scale(0.06 -0.06)">
       <use xlink:href="#DejaVuSans-82"/>
       <use x="64.982422" xlink:href="#DejaVuSans-111"/>
       <use x="126.164062" xlink:href="#DejaVuSans-99"/>
       <use x="181.144531" xlink:href="#DejaVuSans-107"/>
      </g>
     </g>
    </g>
    <g id="xtick_7">
     <g id="text_7">
      <!-- Rock -->
      <g transform="translate(139.218125 315.461875)rotate(-90)scale(0.06 -0.06)">
       <use xlink:href="#DejaVuSans-82"/>
       <use x="64.982422" xlink:href="#DejaVuSans-111"/>
       <use x="126.164062" xlink:href="#DejaVuSans-99"/>
       <use x="181.144531" xlink:href="#DejaVuSans-107"/>
      </g>
     </g>
    </g>
    <g id="xtick_8">
     <g id="text_8">
      <!-- Rock -->
      <g transform="translate(157.218125 315.461875)rotate(-90)scale(0.06 -0.06)">
       <use xlink:href="#DejaVuSans-82"/>
       <use x="64.982422" xlink:href="#DejaVuSans-111"/>
       <use x="126.164062" xlink:href="#DejaVuSans-99"/>
       <use x="181.144531" xlink:href="#DejaVuSans-107"/>
      </g>
     </g>
    </g>
    <g id="xtick_9">
     <g id="text_9">
      <!-- Rock -->
      <g transform="translate(175.218125 315.461875)rotate(-90)scale(0.06 -0.06)">
       <use xlink:href="#DejaVuSans-82"/>
       <use x="64.982422" xlink:href="#DejaVuSans-111"/>
       <use x="126.164062" xlink:href="#DejaVuSans-99"/>
       <use x="181.144531" xlink:href="#DejaVuSans-107"/>
      </g>
     </g>
    </g>
    <g id="xtick_10">
     <g id="text_10">
      <!-- Rock -->
      <g transform="translate(193.218125 315.461875)rotate(-90)scale(0.06 -0.06)">
       <use xlink:href="#DejaVuSans-82"/>
       <use x="64.982422" xlink:href="#DejaVuSans-111"/>
       <use x="126.164062" xlink:href="#DejaVuSans-99"/>
       <use x="181.144531" xlink:href="#DejaVuSans-107"/>
      </g>
     </g>
    </g>
    <g id="xtick_11">
     <g id="text_11">
      <!-- Rock -->
      <g transform="translate(211.218125 315.461875)rotate(-90)scale(0.06 -0.06)">
       <use xlink:href="#DejaVuSans-82"/>
       <use x="64.982422" xlink:href="#DejaVuSans-111"/>
       <use x="126.164062" xlink:href="#DejaVuSans-99"/>
       <use x="181.144531" xlink:href="#DejaVuSans-107"/>
      </g>
     </g>
    </g>
    <g id="xtick_12">
     <g id="text_12">
      <!-- Rock -->
      <g transform="translate(229.218125 315.461875)rotate(-90)scale(0.06 -0.06)">
       <use xlink:href="#DejaVuSans-82"/>
       <use x="64.982422" xlink:href="#DejaVuSans-111"/>
       <use x="126.164062" xlink:href="#DejaVuSans-99"/>
       <use x="181.144531" xlink:href="#DejaVuSans-107"/>
      </g>
     </g>
    </g>
    <g id="xtick_13">
     <g id="text_13">
      <!-- Rock -->
      <g transform="translate(247.218125 315.461875)rotate(-90)scale(0.06 -0.06)">
       <use xlink:href="#DejaVuSans-82"/>
       <use x="64.982422" xlink:href="#DejaVuSans-111"/>
       <use x="126.164062" xlink:href="#DejaVuSans-99"/>
       <use x="181.144531" xlink:href="#DejaVuSans-107"/>
      </g>
     </g>
    </g>
    <g id="xtick_14">
     <g id="text_14">
      <!-- Classical -->
      <g transform="translate(265.218125 327.2125)rotate(-90)scale(0.06 -0.06)">
       <use xlink:href="#DejaVuSans-67"/>
       <use x="69.824219" xlink:href="#DejaVuSans-108"/>
       <use x="97.607422" xlink:href="#DejaVuSans-97"/>
       <use x="158.886719" xlink:href="#DejaVuSans-115"/>
       <use x="210.986328" xlink:href="#DejaVuSans-115"/>
       <use x="263.085938" xlink:href="#DejaVuSans-105"/>
       <use x="290.869141" xlink:href="#DejaVuSans-99"/>
       <use x="345.849609" xlink:href="#DejaVuSans-97"/>
       <use x="407.128906" xlink:href="#DejaVuSans-108"/>
      </g>
     </g>
    </g>
    <g id="xtick_15">
     <g id="text_15">
      <!-- Classical -->
      <g transform="translate(283.218125 327.2125)rotate(-90)scale(0.06 -0.06)">
       <use xlink:href="#DejaVuSans-67"/>
       <use x="69.824219" xlink:href="#DejaVuSans-108"/>
       <use x="97.607422" xlink:href="#DejaVuSans-97"/>
       <use x="158.886719" xlink:href="#DejaVuSans-115"/>
       <use x="210.986328" xlink:href="#DejaVuSans-115"/>
       <use x="263.085938" xlink:href="#DejaVuSans-105"/>
       <use x="290.869141" xlink:href="#DejaVuSans-99"/>
       <use x="345.849609" xlink:href="#DejaVuSans-97"/>
       <use x="407.128906" xlink:href="#DejaVuSans-108"/>
      </g>
     </g>
    </g>
    <g id="xtick_16">
     <g id="text_16">
      <!-- Classical -->
      <g transform="translate(301.218125 327.2125)rotate(-90)scale(0.06 -0.06)">
       <use xlink:href="#DejaVuSans-67"/>
       <use x="69.824219" xlink:href="#DejaVuSans-108"/>
       <use x="97.607422" xlink:href="#DejaVuSans-97"/>
       <use x="158.886719" xlink:href="#DejaVuSans-115"/>
       <use x="210.986328" xlink:href="#DejaVuSans-115"/>
       <use x="263.085938" xlink:href="#DejaVuSans-105"/>
       <use x="290.869141" xlink:href="#DejaVuSans-99"/>
       <use x="345.849609" xlink:href="#DejaVuSans-97"/>
       <use x="407.128906" xlink:href="#DejaVuSans-108"/>
      </g>
     </g>
    </g>
    <g id="xtick_17">
     <g id="text_17">
      <!-- Classical -->
      <g transform="translate(319.218125 327.2125)rotate(-90)scale(0.06 -0.06)">
       <use xlink:href="#DejaVuSans-67"/>
       <use x="69.824219" xlink:href="#DejaVuSans-108"/>
       <use x="97.607422" xlink:href="#DejaVuSans-97"/>
       <use x="158.886719" xlink:href="#DejaVuSans-115"/>
       <use x="210.986328" xlink:href="#DejaVuSans-115"/>
       <use x="263.085938" xlink:href="#DejaVuSans-105"/>
       <use x="290.869141" xlink:href="#DejaVuSans-99"/>
       <use x="345.849609" xlink:href="#DejaVuSans-97"/>
       <use x="407.128906" xlink:href="#DejaVuSans-108"/>
      </g>
     </g>
    </g>
    <g id="xtick_18">
     <g id="text_18">
      <!-- Rock -->
      <g transform="translate(337.218125 315.461875)rotate(-90)scale(0.06 -0.06)">
       <use xlink:href="#DejaVuSans-82"/>
       <use x="64.982422" xlink:href="#DejaVuSans-111"/>
       <use x="126.164062" xlink:href="#DejaVuSans-99"/>
       <use x="181.144531" xlink:href="#DejaVuSans-107"/>
      </g>
     </g>
    </g>
    <g id="xtick_19">
     <g id="text_19">
      <!-- Classical -->
      <g transform="translate(355.218125 327.2125)rotate(-90)scale(0.06 -0.06)">
       <use xlink:href="#DejaVuSans-67"/>
       <use x="69.824219" xlink:href="#DejaVuSans-108"/>
       <use x="97.607422" xlink:href="#DejaVuSans-97"/>
       <use x="158.886719" xlink:href="#DejaVuSans-115"/>
       <use x="210.986328" xlink:href="#DejaVuSans-115"/>
       <use x="263.085938" xlink:href="#DejaVuSans-105"/>
       <use x="290.869141" xlink:href="#DejaVuSans-99"/>
       <use x="345.849609" xlink:href="#DejaVuSans-97"/>
       <use x="407.128906" xlink:href="#DejaVuSans-108"/>
      </g>
     </g>
    </g>
    <g id="xtick_20">
     <g id="text_20">
      <!-- Rock -->
      <g transform="translate(373.218125 315.461875)rotate(-90)scale(0.06 -0.06)">
       <use xlink:href="#DejaVuSans-82"/>
       <use x="64.982422" xlink:href="#DejaVuSans-111"/>
       <use x="126.164062" xlink:href="#DejaVuSans-99"/>
       <use x="181.144531" xlink:href="#DejaVuSans-107"/>
      </g>
     </g>
    </g>
    <g id="xtick_21">
     <g id="text_21">
      <!-- Rock -->
      <g transform="translate(391.218125 315.461875)rotate(-90)scale(0.06 -0.06)">
       <use xlink:href="#DejaVuSans-82"/>
       <use x="64.982422" xlink:href="#DejaVuSans-111"/>
       <use x="126.164062" xlink:href="#DejaVuSans-99"/>
       <use x="181.144531" xlink:href="#DejaVuSans-107"/>
      </g>
     </g>
    </g>
    <g id="xtick_22">
     <g id="text_22">
      <!-- Rock -->
      <g transform="translate(409.218125 315.461875)rotate(-90)scale(0.06 -0.06)">
       <use xlink:href="#DejaVuSans-82"/>
       <use x="64.982422" xlink:href="#DejaVuSans-111"/>
       <use x="126.164062" xlink:href="#DejaVuSans-99"/>
       <use x="181.144531" xlink:href="#DejaVuSans-107"/>
      </g>
     </g>
    </g>
    <g id="xtick_23">
     <g id="text_23">
      <!-- Rock -->
      <g transform="translate(427.218125 315.461875)rotate(-90)scale(0.06 -0.06)">
       <use xlink:href="#DejaVuSans-82"/>
       <use x="64.982422" xlink:href="#DejaVuSans-111"/>
       <use x="126.164062" xlink:href="#DejaVuSans-99"/>
       <use x="181.144531" xlink:href="#DejaVuSans-107"/>
      </g>
     </g>
    </g>
    <g id="xtick_24">
     <g id="text_24">
      <!-- Rock -->
      <g transform="translate(445.218125 315.461875)rotate(-90)scale(0.06 -0.06)">
       <use xlink:href="#DejaVuSans-82"/>
       <use x="64.982422" xlink:href="#DejaVuSans-111"/>
       <use x="126.164062" xlink:href="#DejaVuSans-99"/>
       <use x="181.144531" xlink:href="#DejaVuSans-107"/>
      </g>
     </g>
    </g>
    <g id="xtick_25">
     <g id="text_25">
      <!-- Rock -->
      <g transform="translate(463.218125 315.461875)rotate(-90)scale(0.06 -0.06)">
       <use xlink:href="#DejaVuSans-82"/>
       <use x="64.982422" xlink:href="#DejaVuSans-111"/>
       <use x="126.164062" xlink:href="#DejaVuSans-99"/>
       <use x="181.144531" xlink:href="#DejaVuSans-107"/>
      </g>
     </g>
    </g>
    <g id="xtick_26">
     <g id="text_26">
      <!-- New wave -->
      <g transform="translate(481.218125 331.939375)rotate(-90)scale(0.06 -0.06)">
       <defs>
        <path d="M 9.8125 72.90625 
L 23.09375 72.90625 
L 55.421875 11.921875 
L 55.421875 72.90625 
L 64.984375 72.90625 
L 64.984375 0 
L 51.703125 0 
L 19.390625 60.984375 
L 19.390625 0 
L 9.8125 0 
z
" id="DejaVuSans-78"/>
        <path d="M 56.203125 29.59375 
L 56.203125 25.203125 
L 14.890625 25.203125 
Q 15.484375 15.921875 20.484375 11.0625 
Q 25.484375 6.203125 34.421875 6.203125 
Q 39.59375 6.203125 44.453125 7.46875 
Q 49.3125 8.734375 54.109375 11.28125 
L 54.109375 2.78125 
Q 49.265625 0.734375 44.1875 -0.34375 
Q 39.109375 -1.421875 33.890625 -1.421875 
Q 20.796875 -1.421875 13.15625 6.1875 
Q 5.515625 13.8125 5.515625 26.8125 
Q 5.515625 40.234375 12.765625 48.109375 
Q 20.015625 56 32.328125 56 
Q 43.359375 56 49.78125 48.890625 
Q 56.203125 41.796875 56.203125 29.59375 
z
M 47.21875 32.234375 
Q 47.125 39.59375 43.09375 43.984375 
Q 39.0625 48.390625 32.421875 48.390625 
Q 24.90625 48.390625 20.390625 44.140625 
Q 15.875 39.890625 15.1875 32.171875 
z
" id="DejaVuSans-101"/>
        <path d="M 4.203125 54.6875 
L 13.1875 54.6875 
L 24.421875 12.015625 
L 35.59375 54.6875 
L 46.1875 54.6875 
L 57.421875 12.015625 
L 68.609375 54.6875 
L 77.59375 54.6875 
L 63.28125 0 
L 52.6875 0 
L 40.921875 44.828125 
L 29.109375 0 
L 18.5 0 
z
" id="DejaVuSans-119"/>
        <path id="DejaVuSans-32"/>
        <path d="M 2.984375 54.6875 
L 12.5 54.6875 
L 29.59375 8.796875 
L 46.6875 54.6875 
L 56.203125 54.6875 
L 35.6875 0 
L 23.484375 0 
z
" id="DejaVuSans-118"/>
       </defs>
       <use xlink:href="#DejaVuSans-78"/>
       <use x="74.804688" xlink:href="#DejaVuSans-101"/>
       <use x="136.328125" xlink:href="#DejaVuSans-119"/>
       <use x="218.115234" xlink:href="#DejaVuSans-32"/>
       <use x="249.902344" xlink:href="#DejaVuSans-119"/>
       <use x="331.689453" xlink:href="#DejaVuSans-97"/>
       <use x="392.96875" xlink:href="#DejaVuSans-118"/>
       <use x="452.148438" xlink:href="#DejaVuSans-101"/>
      </g>
     </g>
    </g>
    <g id="xtick_27">
     <g id="text_27">
      <!-- Classical -->
      <g transform="translate(499.218125 327.2125)rotate(-90)scale(0.06 -0.06)">
       <use xlink:href="#DejaVuSans-67"/>
       <use x="69.824219" xlink:href="#DejaVuSans-108"/>
       <use x="97.607422" xlink:href="#DejaVuSans-97"/>
       <use x="158.886719" xlink:href="#DejaVuSans-115"/>
       <use x="210.986328" xlink:href="#DejaVuSans-115"/>
       <use x="263.085938" xlink:href="#DejaVuSans-105"/>
       <use x="290.869141" xlink:href="#DejaVuSans-99"/>
       <use x="345.849609" xlink:href="#DejaVuSans-97"/>
       <use x="407.128906" xlink:href="#DejaVuSans-108"/>
      </g>
     </g>
    </g>
    <g id="xtick_28">
     <g id="text_28">
      <!-- Rock -->
      <g transform="translate(517.218125 315.461875)rotate(-90)scale(0.06 -0.06)">
       <use xlink:href="#DejaVuSans-82"/>
       <use x="64.982422" xlink:href="#DejaVuSans-111"/>
       <use x="126.164062" xlink:href="#DejaVuSans-99"/>
       <use x="181.144531" xlink:href="#DejaVuSans-107"/>
      </g>
     </g>
    </g>
    <g id="xtick_29">
     <g id="text_29">
      <!-- Rock -->
      <g transform="translate(535.218125 315.461875)rotate(-90)scale(0.06 -0.06)">
       <use xlink:href="#DejaVuSans-82"/>
       <use x="64.982422" xlink:href="#DejaVuSans-111"/>
       <use x="126.164062" xlink:href="#DejaVuSans-99"/>
       <use x="181.144531" xlink:href="#DejaVuSans-107"/>
      </g>
     </g>
    </g>
    <g id="xtick_30">
     <g id="text_30">
      <!-- Rock -->
      <g transform="translate(553.218125 315.461875)rotate(-90)scale(0.06 -0.06)">
       <use xlink:href="#DejaVuSans-82"/>
       <use x="64.982422" xlink:href="#DejaVuSans-111"/>
       <use x="126.164062" xlink:href="#DejaVuSans-99"/>
       <use x="181.144531" xlink:href="#DejaVuSans-107"/>
      </g>
     </g>
    </g>
    <g id="xtick_31">
     <g id="text_31">
      <!-- Rock -->
      <g transform="translate(571.218125 315.461875)rotate(-90)scale(0.06 -0.06)">
       <use xlink:href="#DejaVuSans-82"/>
       <use x="64.982422" xlink:href="#DejaVuSans-111"/>
       <use x="126.164062" xlink:href="#DejaVuSans-99"/>
       <use x="181.144531" xlink:href="#DejaVuSans-107"/>
      </g>
     </g>
    </g>
    <g id="xtick_32">
     <g id="text_32">
      <!-- Classical -->
      <g transform="translate(589.218125 327.2125)rotate(-90)scale(0.06 -0.06)">
       <use xlink:href="#DejaVuSans-67"/>
       <use x="69.824219" xlink:href="#DejaVuSans-108"/>
       <use x="97.607422" xlink:href="#DejaVuSans-97"/>
       <use x="158.886719" xlink:href="#DejaVuSans-115"/>
       <use x="210.986328" xlink:href="#DejaVuSans-115"/>
       <use x="263.085938" xlink:href="#DejaVuSans-105"/>
       <use x="290.869141" xlink:href="#DejaVuSans-99"/>
       <use x="345.849609" xlink:href="#DejaVuSans-97"/>
       <use x="407.128906" xlink:href="#DejaVuSans-108"/>
      </g>
     </g>
    </g>
    <g id="xtick_33">
     <g id="text_33">
      <!-- Classical -->
      <g transform="translate(607.218125 327.2125)rotate(-90)scale(0.06 -0.06)">
       <use xlink:href="#DejaVuSans-67"/>
       <use x="69.824219" xlink:href="#DejaVuSans-108"/>
       <use x="97.607422" xlink:href="#DejaVuSans-97"/>
       <use x="158.886719" xlink:href="#DejaVuSans-115"/>
       <use x="210.986328" xlink:href="#DejaVuSans-115"/>
       <use x="263.085938" xlink:href="#DejaVuSans-105"/>
       <use x="290.869141" xlink:href="#DejaVuSans-99"/>
       <use x="345.849609" xlink:href="#DejaVuSans-97"/>
       <use x="407.128906" xlink:href="#DejaVuSans-108"/>
      </g>
     </g>
    </g>
    <g id="xtick_34">
     <g id="text_34">
      <!-- Classical -->
      <g transform="translate(625.218125 327.2125)rotate(-90)scale(0.06 -0.06)">
       <use xlink:href="#DejaVuSans-67"/>
       <use x="69.824219" xlink:href="#DejaVuSans-108"/>
       <use x="97.607422" xlink:href="#DejaVuSans-97"/>
       <use x="158.886719" xlink:href="#DejaVuSans-115"/>
       <use x="210.986328" xlink:href="#DejaVuSans-115"/>
       <use x="263.085938" xlink:href="#DejaVuSans-105"/>
       <use x="290.869141" xlink:href="#DejaVuSans-99"/>
       <use x="345.849609" xlink:href="#DejaVuSans-97"/>
       <use x="407.128906" xlink:href="#DejaVuSans-108"/>
      </g>
     </g>
    </g>
    <g id="xtick_35">
     <g id="text_35">
      <!-- Classical -->
      <g transform="translate(643.218125 327.2125)rotate(-90)scale(0.06 -0.06)">
       <use xlink:href="#DejaVuSans-67"/>
       <use x="69.824219" xlink:href="#DejaVuSans-108"/>
       <use x="97.607422" xlink:href="#DejaVuSans-97"/>
       <use x="158.886719" xlink:href="#DejaVuSans-115"/>
       <use x="210.986328" xlink:href="#DejaVuSans-115"/>
       <use x="263.085938" xlink:href="#DejaVuSans-105"/>
       <use x="290.869141" xlink:href="#DejaVuSans-99"/>
       <use x="345.849609" xlink:href="#DejaVuSans-97"/>
       <use x="407.128906" xlink:href="#DejaVuSans-108"/>
      </g>
     </g>
    </g>
    <g id="xtick_36">
     <g id="text_36">
      <!-- New wave -->
      <g transform="translate(661.218125 331.939375)rotate(-90)scale(0.06 -0.06)">
       <use xlink:href="#DejaVuSans-78"/>
       <use x="74.804688" xlink:href="#DejaVuSans-101"/>
       <use x="136.328125" xlink:href="#DejaVuSans-119"/>
       <use x="218.115234" xlink:href="#DejaVuSans-32"/>
       <use x="249.902344" xlink:href="#DejaVuSans-119"/>
       <use x="331.689453" xlink:href="#DejaVuSans-97"/>
       <use x="392.96875" xlink:href="#DejaVuSans-118"/>
       <use x="452.148438" xlink:href="#DejaVuSans-101"/>
      </g>
     </g>
    </g>
    <g id="xtick_37">
     <g id="text_37">
      <!-- Classical -->
      <g transform="translate(679.218125 327.2125)rotate(-90)scale(0.06 -0.06)">
       <use xlink:href="#DejaVuSans-67"/>
       <use x="69.824219" xlink:href="#DejaVuSans-108"/>
       <use x="97.607422" xlink:href="#DejaVuSans-97"/>
       <use x="158.886719" xlink:href="#DejaVuSans-115"/>
       <use x="210.986328" xlink:href="#DejaVuSans-115"/>
       <use x="263.085938" xlink:href="#DejaVuSans-105"/>
       <use x="290.869141" xlink:href="#DejaVuSans-99"/>
       <use x="345.849609" xlink:href="#DejaVuSans-97"/>
       <use x="407.128906" xlink:href="#DejaVuSans-108"/>
      </g>
     </g>
    </g>
    <g id="xtick_38">
     <g id="text_38">
      <!-- Classical -->
      <g transform="translate(697.218125 327.2125)rotate(-90)scale(0.06 -0.06)">
       <use xlink:href="#DejaVuSans-67"/>
       <use x="69.824219" xlink:href="#DejaVuSans-108"/>
       <use x="97.607422" xlink:href="#DejaVuSans-97"/>
       <use x="158.886719" xlink:href="#DejaVuSans-115"/>
       <use x="210.986328" xlink:href="#DejaVuSans-115"/>
       <use x="263.085938" xlink:href="#DejaVuSans-105"/>
       <use x="290.869141" xlink:href="#DejaVuSans-99"/>
       <use x="345.849609" xlink:href="#DejaVuSans-97"/>
       <use x="407.128906" xlink:href="#DejaVuSans-108"/>
      </g>
     </g>
    </g>
    <g id="xtick_39">
     <g id="text_39">
      <!-- Classical -->
      <g transform="translate(715.218125 327.2125)rotate(-90)scale(0.06 -0.06)">
       <use xlink:href="#DejaVuSans-67"/>
       <use x="69.824219" xlink:href="#DejaVuSans-108"/>
       <use x="97.607422" xlink:href="#DejaVuSans-97"/>
       <use x="158.886719" xlink:href="#DejaVuSans-115"/>
       <use x="210.986328" xlink:href="#DejaVuSans-115"/>
       <use x="263.085938" xlink:href="#DejaVuSans-105"/>
       <use x="290.869141" xlink:href="#DejaVuSans-99"/>
       <use x="345.849609" xlink:href="#DejaVuSans-97"/>
       <use x="407.128906" xlink:href="#DejaVuSans-108"/>
      </g>
     </g>
    </g>
    <g id="xtick_40">
     <g id="text_40">
      <!-- Classical -->
      <g transform="translate(733.218125 327.2125)rotate(-90)scale(0.06 -0.06)">
       <use xlink:href="#DejaVuSans-67"/>
       <use x="69.824219" xlink:href="#DejaVuSans-108"/>
       <use x="97.607422" xlink:href="#DejaVuSans-97"/>
       <use x="158.886719" xlink:href="#DejaVuSans-115"/>
       <use x="210.986328" xlink:href="#DejaVuSans-115"/>
       <use x="263.085938" xlink:href="#DejaVuSans-105"/>
       <use x="290.869141" xlink:href="#DejaVuSans-99"/>
       <use x="345.849609" xlink:href="#DejaVuSans-97"/>
       <use x="407.128906" xlink:href="#DejaVuSans-108"/>
      </g>
     </g>
    </g>
    <g id="xtick_41">
     <g id="text_41">
      <!-- Classical -->
      <g transform="translate(751.218125 327.2125)rotate(-90)scale(0.06 -0.06)">
       <use xlink:href="#DejaVuSans-67"/>
       <use x="69.824219" xlink:href="#DejaVuSans-108"/>
       <use x="97.607422" xlink:href="#DejaVuSans-97"/>
       <use x="158.886719" xlink:href="#DejaVuSans-115"/>
       <use x="210.986328" xlink:href="#DejaVuSans-115"/>
       <use x="263.085938" xlink:href="#DejaVuSans-105"/>
       <use x="290.869141" xlink:href="#DejaVuSans-99"/>
       <use x="345.849609" xlink:href="#DejaVuSans-97"/>
       <use x="407.128906" xlink:href="#DejaVuSans-108"/>
      </g>
     </g>
    </g>
    <g id="xtick_42">
     <g id="text_42">
      <!-- Classical -->
      <g transform="translate(769.218125 327.2125)rotate(-90)scale(0.06 -0.06)">
       <use xlink:href="#DejaVuSans-67"/>
       <use x="69.824219" xlink:href="#DejaVuSans-108"/>
       <use x="97.607422" xlink:href="#DejaVuSans-97"/>
       <use x="158.886719" xlink:href="#DejaVuSans-115"/>
       <use x="210.986328" xlink:href="#DejaVuSans-115"/>
       <use x="263.085938" xlink:href="#DejaVuSans-105"/>
       <use x="290.869141" xlink:href="#DejaVuSans-99"/>
       <use x="345.849609" xlink:href="#DejaVuSans-97"/>
       <use x="407.128906" xlink:href="#DejaVuSans-108"/>
      </g>
     </g>
    </g>
    <g id="xtick_43">
     <g id="text_43">
      <!-- Classical -->
      <g transform="translate(787.218125 327.2125)rotate(-90)scale(0.06 -0.06)">
       <use xlink:href="#DejaVuSans-67"/>
       <use x="69.824219" xlink:href="#DejaVuSans-108"/>
       <use x="97.607422" xlink:href="#DejaVuSans-97"/>
       <use x="158.886719" xlink:href="#DejaVuSans-115"/>
       <use x="210.986328" xlink:href="#DejaVuSans-115"/>
       <use x="263.085938" xlink:href="#DejaVuSans-105"/>
       <use x="290.869141" xlink:href="#DejaVuSans-99"/>
       <use x="345.849609" xlink:href="#DejaVuSans-97"/>
       <use x="407.128906" xlink:href="#DejaVuSans-108"/>
      </g>
     </g>
    </g>
    <g id="xtick_44">
     <g id="text_44">
      <!-- Classical -->
      <g transform="translate(805.218125 327.2125)rotate(-90)scale(0.06 -0.06)">
       <use xlink:href="#DejaVuSans-67"/>
       <use x="69.824219" xlink:href="#DejaVuSans-108"/>
       <use x="97.607422" xlink:href="#DejaVuSans-97"/>
       <use x="158.886719" xlink:href="#DejaVuSans-115"/>
       <use x="210.986328" xlink:href="#DejaVuSans-115"/>
       <use x="263.085938" xlink:href="#DejaVuSans-105"/>
       <use x="290.869141" xlink:href="#DejaVuSans-99"/>
       <use x="345.849609" xlink:href="#DejaVuSans-97"/>
       <use x="407.128906" xlink:href="#DejaVuSans-108"/>
      </g>
     </g>
    </g>
    <g id="xtick_45">
     <g id="text_45">
      <!-- Classical -->
      <g transform="translate(823.218125 327.2125)rotate(-90)scale(0.06 -0.06)">
       <use xlink:href="#DejaVuSans-67"/>
       <use x="69.824219" xlink:href="#DejaVuSans-108"/>
       <use x="97.607422" xlink:href="#DejaVuSans-97"/>
       <use x="158.886719" xlink:href="#DejaVuSans-115"/>
       <use x="210.986328" xlink:href="#DejaVuSans-115"/>
       <use x="263.085938" xlink:href="#DejaVuSans-105"/>
       <use x="290.869141" xlink:href="#DejaVuSans-99"/>
       <use x="345.849609" xlink:href="#DejaVuSans-97"/>
       <use x="407.128906" xlink:href="#DejaVuSans-108"/>
      </g>
     </g>
    </g>
    <g id="xtick_46">
     <g id="text_46">
      <!-- Classical -->
      <g transform="translate(841.218125 327.2125)rotate(-90)scale(0.06 -0.06)">
       <use xlink:href="#DejaVuSans-67"/>
       <use x="69.824219" xlink:href="#DejaVuSans-108"/>
       <use x="97.607422" xlink:href="#DejaVuSans-97"/>
       <use x="158.886719" xlink:href="#DejaVuSans-115"/>
       <use x="210.986328" xlink:href="#DejaVuSans-115"/>
       <use x="263.085938" xlink:href="#DejaVuSans-105"/>
       <use x="290.869141" xlink:href="#DejaVuSans-99"/>
       <use x="345.849609" xlink:href="#DejaVuSans-97"/>
       <use x="407.128906" xlink:href="#DejaVuSans-108"/>
      </g>
     </g>
    </g>
    <g id="xtick_47">
     <g id="text_47">
      <!-- New wave -->
      <g transform="translate(859.218125 331.939375)rotate(-90)scale(0.06 -0.06)">
       <use xlink:href="#DejaVuSans-78"/>
       <use x="74.804688" xlink:href="#DejaVuSans-101"/>
       <use x="136.328125" xlink:href="#DejaVuSans-119"/>
       <use x="218.115234" xlink:href="#DejaVuSans-32"/>
       <use x="249.902344" xlink:href="#DejaVuSans-119"/>
       <use x="331.689453" xlink:href="#DejaVuSans-97"/>
       <use x="392.96875" xlink:href="#DejaVuSans-118"/>
       <use x="452.148438" xlink:href="#DejaVuSans-101"/>
      </g>
     </g>
    </g>
    <g id="xtick_48">
     <g id="text_48">
      <!-- Classical -->
      <g transform="translate(877.218125 327.2125)rotate(-90)scale(0.06 -0.06)">
       <use xlink:href="#DejaVuSans-67"/>
       <use x="69.824219" xlink:href="#DejaVuSans-108"/>
       <use x="97.607422" xlink:href="#DejaVuSans-97"/>
       <use x="158.886719" xlink:href="#DejaVuSans-115"/>
       <use x="210.986328" xlink:href="#DejaVuSans-115"/>
       <use x="263.085938" xlink:href="#DejaVuSans-105"/>
       <use x="290.869141" xlink:href="#DejaVuSans-99"/>
       <use x="345.849609" xlink:href="#DejaVuSans-97"/>
       <use x="407.128906" xlink:href="#DejaVuSans-108"/>
      </g>
     </g>
    </g>
    <g id="xtick_49">
     <g id="text_49">
      <!-- Classical -->
      <g transform="translate(895.218125 327.2125)rotate(-90)scale(0.06 -0.06)">
       <use xlink:href="#DejaVuSans-67"/>
       <use x="69.824219" xlink:href="#DejaVuSans-108"/>
       <use x="97.607422" xlink:href="#DejaVuSans-97"/>
       <use x="158.886719" xlink:href="#DejaVuSans-115"/>
       <use x="210.986328" xlink:href="#DejaVuSans-115"/>
       <use x="263.085938" xlink:href="#DejaVuSans-105"/>
       <use x="290.869141" xlink:href="#DejaVuSans-99"/>
       <use x="345.849609" xlink:href="#DejaVuSans-97"/>
       <use x="407.128906" xlink:href="#DejaVuSans-108"/>
      </g>
     </g>
    </g>
    <g id="xtick_50">
     <g id="text_50">
      <!-- Classical -->
      <g transform="translate(913.218125 327.2125)rotate(-90)scale(0.06 -0.06)">
       <use xlink:href="#DejaVuSans-67"/>
       <use x="69.824219" xlink:href="#DejaVuSans-108"/>
       <use x="97.607422" xlink:href="#DejaVuSans-97"/>
       <use x="158.886719" xlink:href="#DejaVuSans-115"/>
       <use x="210.986328" xlink:href="#DejaVuSans-115"/>
       <use x="263.085938" xlink:href="#DejaVuSans-105"/>
       <use x="290.869141" xlink:href="#DejaVuSans-99"/>
       <use x="345.849609" xlink:href="#DejaVuSans-97"/>
       <use x="407.128906" xlink:href="#DejaVuSans-108"/>
      </g>
     </g>
    </g>
    <g id="xtick_51">
     <g id="text_51">
      <!-- Rock -->
      <g transform="translate(931.218125 315.461875)rotate(-90)scale(0.06 -0.06)">
       <use xlink:href="#DejaVuSans-82"/>
       <use x="64.982422" xlink:href="#DejaVuSans-111"/>
       <use x="126.164062" xlink:href="#DejaVuSans-99"/>
       <use x="181.144531" xlink:href="#DejaVuSans-107"/>
      </g>
     </g>
    </g>
    <g id="xtick_52">
     <g id="text_52">
      <!-- Classical -->
      <g transform="translate(949.218125 327.2125)rotate(-90)scale(0.06 -0.06)">
       <use xlink:href="#DejaVuSans-67"/>
       <use x="69.824219" xlink:href="#DejaVuSans-108"/>
       <use x="97.607422" xlink:href="#DejaVuSans-97"/>
       <use x="158.886719" xlink:href="#DejaVuSans-115"/>
       <use x="210.986328" xlink:href="#DejaVuSans-115"/>
       <use x="263.085938" xlink:href="#DejaVuSans-105"/>
       <use x="290.869141" xlink:href="#DejaVuSans-99"/>
       <use x="345.849609" xlink:href="#DejaVuSans-97"/>
       <use x="407.128906" xlink:href="#DejaVuSans-108"/>
      </g>
     </g>
    </g>
    <g id="xtick_53">
     <g id="text_53">
      <!-- Rock -->
      <g transform="translate(967.218125 315.461875)rotate(-90)scale(0.06 -0.06)">
       <use xlink:href="#DejaVuSans-82"/>
       <use x="64.982422" xlink:href="#DejaVuSans-111"/>
       <use x="126.164062" xlink:href="#DejaVuSans-99"/>
       <use x="181.144531" xlink:href="#DejaVuSans-107"/>
      </g>
     </g>
    </g>
    <g id="xtick_54">
     <g id="text_54">
      <!-- Rock -->
      <g transform="translate(985.218125 315.461875)rotate(-90)scale(0.06 -0.06)">
       <use xlink:href="#DejaVuSans-82"/>
       <use x="64.982422" xlink:href="#DejaVuSans-111"/>
       <use x="126.164062" xlink:href="#DejaVuSans-99"/>
       <use x="181.144531" xlink:href="#DejaVuSans-107"/>
      </g>
     </g>
    </g>
    <g id="xtick_55">
     <g id="text_55">
      <!-- Rock -->
      <g transform="translate(1003.218125 315.461875)rotate(-90)scale(0.06 -0.06)">
       <use xlink:href="#DejaVuSans-82"/>
       <use x="64.982422" xlink:href="#DejaVuSans-111"/>
       <use x="126.164062" xlink:href="#DejaVuSans-99"/>
       <use x="181.144531" xlink:href="#DejaVuSans-107"/>
      </g>
     </g>
    </g>
    <g id="xtick_56">
     <g id="text_56">
      <!-- Rock -->
      <g transform="translate(1021.218125 315.461875)rotate(-90)scale(0.06 -0.06)">
       <use xlink:href="#DejaVuSans-82"/>
       <use x="64.982422" xlink:href="#DejaVuSans-111"/>
       <use x="126.164062" xlink:href="#DejaVuSans-99"/>
       <use x="181.144531" xlink:href="#DejaVuSans-107"/>
      </g>
     </g>
    </g>
    <g id="xtick_57">
     <g id="text_57">
      <!-- Rock -->
      <g transform="translate(1039.218125 315.461875)rotate(-90)scale(0.06 -0.06)">
       <use xlink:href="#DejaVuSans-82"/>
       <use x="64.982422" xlink:href="#DejaVuSans-111"/>
       <use x="126.164062" xlink:href="#DejaVuSans-99"/>
       <use x="181.144531" xlink:href="#DejaVuSans-107"/>
      </g>
     </g>
    </g>
    <g id="xtick_58">
     <g id="text_58">
      <!-- Rock -->
      <g transform="translate(1057.218125 315.461875)rotate(-90)scale(0.06 -0.06)">
       <use xlink:href="#DejaVuSans-82"/>
       <use x="64.982422" xlink:href="#DejaVuSans-111"/>
       <use x="126.164062" xlink:href="#DejaVuSans-99"/>
       <use x="181.144531" xlink:href="#DejaVuSans-107"/>
      </g>
     </g>
    </g>
    <g id="xtick_59">
     <g id="text_59">
      <!-- Rock -->
      <g transform="translate(1075.218125 315.461875)rotate(-90)scale(0.06 -0.06)">
       <use xlink:href="#DejaVuSans-82"/>
       <use x="64.982422" xlink:href="#DejaVuSans-111"/>
       <use x="126.164062" xlink:href="#DejaVuSans-99"/>
       <use x="181.144531" xlink:href="#DejaVuSans-107"/>
      </g>
     </g>
    </g>
    <g id="xtick_60">
     <g id="text_60">
      <!-- Rock -->
      <g transform="translate(1093.218125 315.461875)rotate(-90)scale(0.06 -0.06)">
       <use xlink:href="#DejaVuSans-82"/>
       <use x="64.982422" xlink:href="#DejaVuSans-111"/>
       <use x="126.164062" xlink:href="#DejaVuSans-99"/>
       <use x="181.144531" xlink:href="#DejaVuSans-107"/>
      </g>
     </g>
    </g>
    <g id="xtick_61">
     <g id="text_61">
      <!-- Rock -->
      <g transform="translate(1111.218125 315.461875)rotate(-90)scale(0.06 -0.06)">
       <use xlink:href="#DejaVuSans-82"/>
       <use x="64.982422" xlink:href="#DejaVuSans-111"/>
       <use x="126.164062" xlink:href="#DejaVuSans-99"/>
       <use x="181.144531" xlink:href="#DejaVuSans-107"/>
      </g>
     </g>
    </g>
    <g id="xtick_62">
     <g id="text_62">
      <!-- Rock -->
      <g transform="translate(1129.218125 315.461875)rotate(-90)scale(0.06 -0.06)">
       <use xlink:href="#DejaVuSans-82"/>
       <use x="64.982422" xlink:href="#DejaVuSans-111"/>
       <use x="126.164062" xlink:href="#DejaVuSans-99"/>
       <use x="181.144531" xlink:href="#DejaVuSans-107"/>
      </g>
     </g>
    </g>
   </g>
   <g id="matplotlib.axis_2">
    <g id="ytick_1">
     <g id="line2d_1">
      <defs>
       <path d="M 0 0 
L -3.5 0 
" id="m3f8ab648b7" style="stroke:#000000;stroke-width:0.8;"/>
      </defs>
      <g>
       <use style="stroke:#000000;stroke-width:0.8;" x="20.5625" xlink:href="#m3f8ab648b7" y="294.118125"/>
      </g>
     </g>
     <g id="text_63">
      <!-- 0 -->
      <g transform="translate(7.2 297.917344)scale(0.1 -0.1)">
       <defs>
        <path d="M 31.78125 66.40625 
Q 24.171875 66.40625 20.328125 58.90625 
Q 16.5 51.421875 16.5 36.375 
Q 16.5 21.390625 20.328125 13.890625 
Q 24.171875 6.390625 31.78125 6.390625 
Q 39.453125 6.390625 43.28125 13.890625 
Q 47.125 21.390625 47.125 36.375 
Q 47.125 51.421875 43.28125 58.90625 
Q 39.453125 66.40625 31.78125 66.40625 
z
M 31.78125 74.21875 
Q 44.046875 74.21875 50.515625 64.515625 
Q 56.984375 54.828125 56.984375 36.375 
Q 56.984375 17.96875 50.515625 8.265625 
Q 44.046875 -1.421875 31.78125 -1.421875 
Q 19.53125 -1.421875 13.0625 8.265625 
Q 6.59375 17.96875 6.59375 36.375 
Q 6.59375 54.828125 13.0625 64.515625 
Q 19.53125 74.21875 31.78125 74.21875 
z
" id="DejaVuSans-48"/>
       </defs>
       <use xlink:href="#DejaVuSans-48"/>
      </g>
     </g>
    </g>
    <g id="ytick_2">
     <g id="line2d_2">
      <g>
       <use style="stroke:#000000;stroke-width:0.8;" x="20.5625" xlink:href="#m3f8ab648b7" y="259.954043"/>
      </g>
     </g>
     <g id="text_64">
      <!-- 1 -->
      <g transform="translate(7.2 263.753262)scale(0.1 -0.1)">
       <defs>
        <path d="M 12.40625 8.296875 
L 28.515625 8.296875 
L 28.515625 63.921875 
L 10.984375 60.40625 
L 10.984375 69.390625 
L 28.421875 72.90625 
L 38.28125 72.90625 
L 38.28125 8.296875 
L 54.390625 8.296875 
L 54.390625 0 
L 12.40625 0 
z
" id="DejaVuSans-49"/>
       </defs>
       <use xlink:href="#DejaVuSans-49"/>
      </g>
     </g>
    </g>
    <g id="ytick_3">
     <g id="line2d_3">
      <g>
       <use style="stroke:#000000;stroke-width:0.8;" x="20.5625" xlink:href="#m3f8ab648b7" y="225.789962"/>
      </g>
     </g>
     <g id="text_65">
      <!-- 2 -->
      <g transform="translate(7.2 229.58918)scale(0.1 -0.1)">
       <defs>
        <path d="M 19.1875 8.296875 
L 53.609375 8.296875 
L 53.609375 0 
L 7.328125 0 
L 7.328125 8.296875 
Q 12.9375 14.109375 22.625 23.890625 
Q 32.328125 33.6875 34.8125 36.53125 
Q 39.546875 41.84375 41.421875 45.53125 
Q 43.3125 49.21875 43.3125 52.78125 
Q 43.3125 58.59375 39.234375 62.25 
Q 35.15625 65.921875 28.609375 65.921875 
Q 23.96875 65.921875 18.8125 64.3125 
Q 13.671875 62.703125 7.8125 59.421875 
L 7.8125 69.390625 
Q 13.765625 71.78125 18.9375 73 
Q 24.125 74.21875 28.421875 74.21875 
Q 39.75 74.21875 46.484375 68.546875 
Q 53.21875 62.890625 53.21875 53.421875 
Q 53.21875 48.921875 51.53125 44.890625 
Q 49.859375 40.875 45.40625 35.40625 
Q 44.1875 33.984375 37.640625 27.21875 
Q 31.109375 20.453125 19.1875 8.296875 
z
" id="DejaVuSans-50"/>
       </defs>
       <use xlink:href="#DejaVuSans-50"/>
      </g>
     </g>
    </g>
    <g id="ytick_4">
     <g id="line2d_4">
      <g>
       <use style="stroke:#000000;stroke-width:0.8;" x="20.5625" xlink:href="#m3f8ab648b7" y="191.62588"/>
      </g>
     </g>
     <g id="text_66">
      <!-- 3 -->
      <g transform="translate(7.2 195.425099)scale(0.1 -0.1)">
       <defs>
        <path d="M 40.578125 39.3125 
Q 47.65625 37.796875 51.625 33 
Q 55.609375 28.21875 55.609375 21.1875 
Q 55.609375 10.40625 48.1875 4.484375 
Q 40.765625 -1.421875 27.09375 -1.421875 
Q 22.515625 -1.421875 17.65625 -0.515625 
Q 12.796875 0.390625 7.625 2.203125 
L 7.625 11.71875 
Q 11.71875 9.328125 16.59375 8.109375 
Q 21.484375 6.890625 26.8125 6.890625 
Q 36.078125 6.890625 40.9375 10.546875 
Q 45.796875 14.203125 45.796875 21.1875 
Q 45.796875 27.640625 41.28125 31.265625 
Q 36.765625 34.90625 28.71875 34.90625 
L 20.21875 34.90625 
L 20.21875 43.015625 
L 29.109375 43.015625 
Q 36.375 43.015625 40.234375 45.921875 
Q 44.09375 48.828125 44.09375 54.296875 
Q 44.09375 59.90625 40.109375 62.90625 
Q 36.140625 65.921875 28.71875 65.921875 
Q 24.65625 65.921875 20.015625 65.03125 
Q 15.375 64.15625 9.8125 62.3125 
L 9.8125 71.09375 
Q 15.4375 72.65625 20.34375 73.4375 
Q 25.25 74.21875 29.59375 74.21875 
Q 40.828125 74.21875 47.359375 69.109375 
Q 53.90625 64.015625 53.90625 55.328125 
Q 53.90625 49.265625 50.4375 45.09375 
Q 46.96875 40.921875 40.578125 39.3125 
z
" id="DejaVuSans-51"/>
       </defs>
       <use xlink:href="#DejaVuSans-51"/>
      </g>
     </g>
    </g>
    <g id="ytick_5">
     <g id="line2d_5">
      <g>
       <use style="stroke:#000000;stroke-width:0.8;" x="20.5625" xlink:href="#m3f8ab648b7" y="157.461798"/>
      </g>
     </g>
     <g id="text_67">
      <!-- 4 -->
      <g transform="translate(7.2 161.261017)scale(0.1 -0.1)">
       <defs>
        <path d="M 37.796875 64.3125 
L 12.890625 25.390625 
L 37.796875 25.390625 
z
M 35.203125 72.90625 
L 47.609375 72.90625 
L 47.609375 25.390625 
L 58.015625 25.390625 
L 58.015625 17.1875 
L 47.609375 17.1875 
L 47.609375 0 
L 37.796875 0 
L 37.796875 17.1875 
L 4.890625 17.1875 
L 4.890625 26.703125 
z
" id="DejaVuSans-52"/>
       </defs>
       <use xlink:href="#DejaVuSans-52"/>
      </g>
     </g>
    </g>
    <g id="ytick_6">
     <g id="line2d_6">
      <g>
       <use style="stroke:#000000;stroke-width:0.8;" x="20.5625" xlink:href="#m3f8ab648b7" y="123.297716"/>
      </g>
     </g>
     <g id="text_68">
      <!-- 5 -->
      <g transform="translate(7.2 127.096935)scale(0.1 -0.1)">
       <defs>
        <path d="M 10.796875 72.90625 
L 49.515625 72.90625 
L 49.515625 64.59375 
L 19.828125 64.59375 
L 19.828125 46.734375 
Q 21.96875 47.46875 24.109375 47.828125 
Q 26.265625 48.1875 28.421875 48.1875 
Q 40.625 48.1875 47.75 41.5 
Q 54.890625 34.8125 54.890625 23.390625 
Q 54.890625 11.625 47.5625 5.09375 
Q 40.234375 -1.421875 26.90625 -1.421875 
Q 22.3125 -1.421875 17.546875 -0.640625 
Q 12.796875 0.140625 7.71875 1.703125 
L 7.71875 11.625 
Q 12.109375 9.234375 16.796875 8.0625 
Q 21.484375 6.890625 26.703125 6.890625 
Q 35.15625 6.890625 40.078125 11.328125 
Q 45.015625 15.765625 45.015625 23.390625 
Q 45.015625 31 40.078125 35.4375 
Q 35.15625 39.890625 26.703125 39.890625 
Q 22.75 39.890625 18.8125 39.015625 
Q 14.890625 38.140625 10.796875 36.28125 
z
" id="DejaVuSans-53"/>
       </defs>
       <use xlink:href="#DejaVuSans-53"/>
      </g>
     </g>
    </g>
    <g id="ytick_7">
     <g id="line2d_7">
      <g>
       <use style="stroke:#000000;stroke-width:0.8;" x="20.5625" xlink:href="#m3f8ab648b7" y="89.133635"/>
      </g>
     </g>
     <g id="text_69">
      <!-- 6 -->
      <g transform="translate(7.2 92.932853)scale(0.1 -0.1)">
       <defs>
        <path d="M 33.015625 40.375 
Q 26.375 40.375 22.484375 35.828125 
Q 18.609375 31.296875 18.609375 23.390625 
Q 18.609375 15.53125 22.484375 10.953125 
Q 26.375 6.390625 33.015625 6.390625 
Q 39.65625 6.390625 43.53125 10.953125 
Q 47.40625 15.53125 47.40625 23.390625 
Q 47.40625 31.296875 43.53125 35.828125 
Q 39.65625 40.375 33.015625 40.375 
z
M 52.59375 71.296875 
L 52.59375 62.3125 
Q 48.875 64.0625 45.09375 64.984375 
Q 41.3125 65.921875 37.59375 65.921875 
Q 27.828125 65.921875 22.671875 59.328125 
Q 17.53125 52.734375 16.796875 39.40625 
Q 19.671875 43.65625 24.015625 45.921875 
Q 28.375 48.1875 33.59375 48.1875 
Q 44.578125 48.1875 50.953125 41.515625 
Q 57.328125 34.859375 57.328125 23.390625 
Q 57.328125 12.15625 50.6875 5.359375 
Q 44.046875 -1.421875 33.015625 -1.421875 
Q 20.359375 -1.421875 13.671875 8.265625 
Q 6.984375 17.96875 6.984375 36.375 
Q 6.984375 53.65625 15.1875 63.9375 
Q 23.390625 74.21875 37.203125 74.21875 
Q 40.921875 74.21875 44.703125 73.484375 
Q 48.484375 72.75 52.59375 71.296875 
z
" id="DejaVuSans-54"/>
       </defs>
       <use xlink:href="#DejaVuSans-54"/>
      </g>
     </g>
    </g>
    <g id="ytick_8">
     <g id="line2d_8">
      <g>
       <use style="stroke:#000000;stroke-width:0.8;" x="20.5625" xlink:href="#m3f8ab648b7" y="54.969553"/>
      </g>
     </g>
     <g id="text_70">
      <!-- 7 -->
      <g transform="translate(7.2 58.768772)scale(0.1 -0.1)">
       <defs>
        <path d="M 8.203125 72.90625 
L 55.078125 72.90625 
L 55.078125 68.703125 
L 28.609375 0 
L 18.3125 0 
L 43.21875 64.59375 
L 8.203125 64.59375 
z
" id="DejaVuSans-55"/>
       </defs>
       <use xlink:href="#DejaVuSans-55"/>
      </g>
     </g>
    </g>
   </g>
   <g id="LineCollection_1">
    <path clip-path="url(#p8d46d93b2b)" d="M 29.5625 294.118125 
L 29.5625 231.112575 
L 47.5625 231.112575 
L 47.5625 294.118125 
" style="fill:none;stroke:#ff7f0e;stroke-width:1.5;"/>
   </g>
   <g id="LineCollection_2">
    <path clip-path="url(#p8d46d93b2b)" d="M 65.5625 294.118125 
L 65.5625 249.50643 
L 83.5625 249.50643 
L 83.5625 294.118125 
" style="fill:none;stroke:#2ca02c;stroke-width:1.5;"/>
   </g>
   <g id="LineCollection_3">
    <path clip-path="url(#p8d46d93b2b)" d="M 101.5625 294.118125 
L 101.5625 271.473669 
L 119.5625 271.473669 
L 119.5625 294.118125 
" style="fill:none;stroke:#d62728;stroke-width:1.5;"/>
    <path clip-path="url(#p8d46d93b2b)" d="M 155.5625 294.118125 
L 155.5625 283.595143 
L 173.5625 283.595143 
L 173.5625 294.118125 
" style="fill:none;stroke:#d62728;stroke-width:1.5;"/>
    <path clip-path="url(#p8d46d93b2b)" d="M 137.5625 294.118125 
L 137.5625 274.84743 
L 164.5625 274.84743 
L 164.5625 283.595143 
" style="fill:none;stroke:#d62728;stroke-width:1.5;"/>
    <path clip-path="url(#p8d46d93b2b)" d="M 191.5625 294.118125 
L 191.5625 273.704921 
L 209.5625 273.704921 
L 209.5625 294.118125 
" style="fill:none;stroke:#d62728;stroke-width:1.5;"/>
    <path clip-path="url(#p8d46d93b2b)" d="M 151.0625 274.84743 
L 151.0625 267.03577 
L 200.5625 267.03577 
L 200.5625 273.704921 
" style="fill:none;stroke:#d62728;stroke-width:1.5;"/>
    <path clip-path="url(#p8d46d93b2b)" d="M 227.5625 294.118125 
L 227.5625 261.534097 
L 245.5625 261.534097 
L 245.5625 294.118125 
" style="fill:none;stroke:#d62728;stroke-width:1.5;"/>
    <path clip-path="url(#p8d46d93b2b)" d="M 175.8125 267.03577 
L 175.8125 234.119706 
L 236.5625 234.119706 
L 236.5625 261.534097 
" style="fill:none;stroke:#d62728;stroke-width:1.5;"/>
    <path clip-path="url(#p8d46d93b2b)" d="M 110.5625 271.473669 
L 110.5625 226.268363 
L 206.1875 226.268363 
L 206.1875 234.119706 
" style="fill:none;stroke:#d62728;stroke-width:1.5;"/>
    <path clip-path="url(#p8d46d93b2b)" d="M 299.5625 294.118125 
L 299.5625 283.254151 
L 317.5625 283.254151 
L 317.5625 294.118125 
" style="fill:none;stroke:#d62728;stroke-width:1.5;"/>
    <path clip-path="url(#p8d46d93b2b)" d="M 281.5625 294.118125 
L 281.5625 279.441054 
L 308.5625 279.441054 
L 308.5625 283.254151 
" style="fill:none;stroke:#d62728;stroke-width:1.5;"/>
    <path clip-path="url(#p8d46d93b2b)" d="M 335.5625 294.118125 
L 335.5625 270.659351 
L 353.5625 270.659351 
L 353.5625 294.118125 
" style="fill:none;stroke:#d62728;stroke-width:1.5;"/>
    <path clip-path="url(#p8d46d93b2b)" d="M 295.0625 279.441054 
L 295.0625 248.705717 
L 344.5625 248.705717 
L 344.5625 270.659351 
" style="fill:none;stroke:#d62728;stroke-width:1.5;"/>
    <path clip-path="url(#p8d46d93b2b)" d="M 263.5625 294.118125 
L 263.5625 237.700725 
L 319.8125 237.700725 
L 319.8125 248.705717 
" style="fill:none;stroke:#d62728;stroke-width:1.5;"/>
    <path clip-path="url(#p8d46d93b2b)" d="M 407.5625 294.118125 
L 407.5625 279.055755 
L 425.5625 279.055755 
L 425.5625 294.118125 
" style="fill:none;stroke:#d62728;stroke-width:1.5;"/>
    <path clip-path="url(#p8d46d93b2b)" d="M 389.5625 294.118125 
L 389.5625 270.133608 
L 416.5625 270.133608 
L 416.5625 279.055755 
" style="fill:none;stroke:#d62728;stroke-width:1.5;"/>
    <path clip-path="url(#p8d46d93b2b)" d="M 371.5625 294.118125 
L 371.5625 266.536676 
L 403.0625 266.536676 
L 403.0625 270.133608 
" style="fill:none;stroke:#d62728;stroke-width:1.5;"/>
    <path clip-path="url(#p8d46d93b2b)" d="M 443.5625 294.118125 
L 443.5625 274.44116 
L 461.5625 274.44116 
L 461.5625 294.118125 
" style="fill:none;stroke:#d62728;stroke-width:1.5;"/>
    <path clip-path="url(#p8d46d93b2b)" d="M 515.5625 294.118125 
L 515.5625 277.891373 
L 533.5625 277.891373 
L 533.5625 294.118125 
" style="fill:none;stroke:#d62728;stroke-width:1.5;"/>
    <path clip-path="url(#p8d46d93b2b)" d="M 497.5625 294.118125 
L 497.5625 269.295065 
L 524.5625 269.295065 
L 524.5625 277.891373 
" style="fill:none;stroke:#d62728;stroke-width:1.5;"/>
    <path clip-path="url(#p8d46d93b2b)" d="M 479.5625 294.118125 
L 479.5625 258.253265 
L 511.0625 258.253265 
L 511.0625 269.295065 
" style="fill:none;stroke:#d62728;stroke-width:1.5;"/>
    <path clip-path="url(#p8d46d93b2b)" d="M 452.5625 274.44116 
L 452.5625 253.591368 
L 495.3125 253.591368 
L 495.3125 258.253265 
" style="fill:none;stroke:#d62728;stroke-width:1.5;"/>
    <path clip-path="url(#p8d46d93b2b)" d="M 387.3125 266.536676 
L 387.3125 235.885829 
L 473.9375 235.885829 
L 473.9375 253.591368 
" style="fill:none;stroke:#d62728;stroke-width:1.5;"/>
    <path clip-path="url(#p8d46d93b2b)" d="M 291.6875 237.700725 
L 291.6875 191.52196 
L 430.625 191.52196 
L 430.625 235.885829 
" style="fill:none;stroke:#d62728;stroke-width:1.5;"/>
    <path clip-path="url(#p8d46d93b2b)" d="M 158.375 226.268363 
L 158.375 173.603129 
L 361.15625 173.603129 
L 361.15625 191.52196 
" style="fill:none;stroke:#d62728;stroke-width:1.5;"/>
   </g>
   <g id="LineCollection_4">
    <path clip-path="url(#p8d46d93b2b)" d="M 551.5625 294.118125 
L 551.5625 270.404338 
L 569.5625 270.404338 
L 569.5625 294.118125 
" style="fill:none;stroke:#9467bd;stroke-width:1.5;"/>
    <path clip-path="url(#p8d46d93b2b)" d="M 587.5625 294.118125 
L 587.5625 266.106314 
L 605.5625 266.106314 
L 605.5625 294.118125 
" style="fill:none;stroke:#9467bd;stroke-width:1.5;"/>
    <path clip-path="url(#p8d46d93b2b)" d="M 623.5625 294.118125 
L 623.5625 281.013154 
L 641.5625 281.013154 
L 641.5625 294.118125 
" style="fill:none;stroke:#9467bd;stroke-width:1.5;"/>
    <path clip-path="url(#p8d46d93b2b)" d="M 659.5625 294.118125 
L 659.5625 276.452226 
L 677.5625 276.452226 
L 677.5625 294.118125 
" style="fill:none;stroke:#9467bd;stroke-width:1.5;"/>
    <path clip-path="url(#p8d46d93b2b)" d="M 632.5625 281.013154 
L 632.5625 251.993726 
L 668.5625 251.993726 
L 668.5625 276.452226 
" style="fill:none;stroke:#9467bd;stroke-width:1.5;"/>
    <path clip-path="url(#p8d46d93b2b)" d="M 596.5625 266.106314 
L 596.5625 234.441222 
L 650.5625 234.441222 
L 650.5625 251.993726 
" style="fill:none;stroke:#9467bd;stroke-width:1.5;"/>
    <path clip-path="url(#p8d46d93b2b)" d="M 560.5625 270.404338 
L 560.5625 205.003646 
L 623.5625 205.003646 
L 623.5625 234.441222 
" style="fill:none;stroke:#9467bd;stroke-width:1.5;"/>
    <path clip-path="url(#p8d46d93b2b)" d="M 713.5625 294.118125 
L 713.5625 265.998006 
L 731.5625 265.998006 
L 731.5625 294.118125 
" style="fill:none;stroke:#9467bd;stroke-width:1.5;"/>
    <path clip-path="url(#p8d46d93b2b)" d="M 695.5625 294.118125 
L 695.5625 239.347067 
L 722.5625 239.347067 
L 722.5625 265.998006 
" style="fill:none;stroke:#9467bd;stroke-width:1.5;"/>
    <path clip-path="url(#p8d46d93b2b)" d="M 749.5625 294.118125 
L 749.5625 273.38636 
L 767.5625 273.38636 
L 767.5625 294.118125 
" style="fill:none;stroke:#9467bd;stroke-width:1.5;"/>
    <path clip-path="url(#p8d46d93b2b)" d="M 785.5625 294.118125 
L 785.5625 264.325845 
L 803.5625 264.325845 
L 803.5625 294.118125 
" style="fill:none;stroke:#9467bd;stroke-width:1.5;"/>
    <path clip-path="url(#p8d46d93b2b)" d="M 758.5625 273.38636 
L 758.5625 238.254746 
L 794.5625 238.254746 
L 794.5625 264.325845 
" style="fill:none;stroke:#9467bd;stroke-width:1.5;"/>
    <path clip-path="url(#p8d46d93b2b)" d="M 709.0625 239.347067 
L 709.0625 227.224748 
L 776.5625 227.224748 
L 776.5625 238.254746 
" style="fill:none;stroke:#9467bd;stroke-width:1.5;"/>
    <path clip-path="url(#p8d46d93b2b)" d="M 821.5625 294.118125 
L 821.5625 238.718272 
L 839.5625 238.718272 
L 839.5625 294.118125 
" style="fill:none;stroke:#9467bd;stroke-width:1.5;"/>
    <path clip-path="url(#p8d46d93b2b)" d="M 857.5625 294.118125 
L 857.5625 267.847674 
L 875.5625 267.847674 
L 875.5625 294.118125 
" style="fill:none;stroke:#9467bd;stroke-width:1.5;"/>
    <path clip-path="url(#p8d46d93b2b)" d="M 911.5625 294.118125 
L 911.5625 275.937655 
L 929.5625 275.937655 
L 929.5625 294.118125 
" style="fill:none;stroke:#9467bd;stroke-width:1.5;"/>
    <path clip-path="url(#p8d46d93b2b)" d="M 893.5625 294.118125 
L 893.5625 257.680325 
L 920.5625 257.680325 
L 920.5625 275.937655 
" style="fill:none;stroke:#9467bd;stroke-width:1.5;"/>
    <path clip-path="url(#p8d46d93b2b)" d="M 866.5625 267.847674 
L 866.5625 236.414785 
L 907.0625 236.414785 
L 907.0625 257.680325 
" style="fill:none;stroke:#9467bd;stroke-width:1.5;"/>
    <path clip-path="url(#p8d46d93b2b)" d="M 830.5625 238.718272 
L 830.5625 204.613632 
L 886.8125 204.613632 
L 886.8125 236.414785 
" style="fill:none;stroke:#9467bd;stroke-width:1.5;"/>
    <path clip-path="url(#p8d46d93b2b)" d="M 742.8125 227.224748 
L 742.8125 186.449984 
L 858.6875 186.449984 
L 858.6875 204.613632 
" style="fill:none;stroke:#9467bd;stroke-width:1.5;"/>
    <path clip-path="url(#p8d46d93b2b)" d="M 592.0625 205.003646 
L 592.0625 159.824347 
L 800.75 159.824347 
L 800.75 186.449984 
" style="fill:none;stroke:#9467bd;stroke-width:1.5;"/>
   </g>
   <g id="LineCollection_5">
    <path clip-path="url(#p8d46d93b2b)" d="M 983.5625 294.118125 
L 983.5625 280.732342 
L 1001.5625 280.732342 
L 1001.5625 294.118125 
" style="fill:none;stroke:#8c564b;stroke-width:1.5;"/>
    <path clip-path="url(#p8d46d93b2b)" d="M 1055.5625 294.118125 
L 1055.5625 283.64217 
L 1073.5625 283.64217 
L 1073.5625 294.118125 
" style="fill:none;stroke:#8c564b;stroke-width:1.5;"/>
    <path clip-path="url(#p8d46d93b2b)" d="M 1037.5625 294.118125 
L 1037.5625 280.418916 
L 1064.5625 280.418916 
L 1064.5625 283.64217 
" style="fill:none;stroke:#8c564b;stroke-width:1.5;"/>
    <path clip-path="url(#p8d46d93b2b)" d="M 1019.5625 294.118125 
L 1019.5625 271.440567 
L 1051.0625 271.440567 
L 1051.0625 280.418916 
" style="fill:none;stroke:#8c564b;stroke-width:1.5;"/>
    <path clip-path="url(#p8d46d93b2b)" d="M 992.5625 280.732342 
L 992.5625 257.495249 
L 1035.3125 257.495249 
L 1035.3125 271.440567 
" style="fill:none;stroke:#8c564b;stroke-width:1.5;"/>
    <path clip-path="url(#p8d46d93b2b)" d="M 1109.5625 294.118125 
L 1109.5625 266.874745 
L 1127.5625 266.874745 
L 1127.5625 294.118125 
" style="fill:none;stroke:#8c564b;stroke-width:1.5;"/>
    <path clip-path="url(#p8d46d93b2b)" d="M 1091.5625 294.118125 
L 1091.5625 243.290791 
L 1118.5625 243.290791 
L 1118.5625 266.874745 
" style="fill:none;stroke:#8c564b;stroke-width:1.5;"/>
    <path clip-path="url(#p8d46d93b2b)" d="M 1013.9375 257.495249 
L 1013.9375 220.347686 
L 1105.0625 220.347686 
L 1105.0625 243.290791 
" style="fill:none;stroke:#8c564b;stroke-width:1.5;"/>
    <path clip-path="url(#p8d46d93b2b)" d="M 965.5625 294.118125 
L 965.5625 173.391908 
L 1059.5 173.391908 
L 1059.5 220.347686 
" style="fill:none;stroke:#8c564b;stroke-width:1.5;"/>
   </g>
   <g id="LineCollection_6">
    <path clip-path="url(#p8d46d93b2b)" d="M 259.765625 173.603129 
L 259.765625 141.711917 
L 696.40625 141.711917 
L 696.40625 159.824347 
" style="fill:none;stroke:#1f77b4;stroke-width:1.5;"/>
    <path clip-path="url(#p8d46d93b2b)" d="M 74.5625 249.50643 
L 74.5625 121.334938 
L 478.085938 121.334938 
L 478.085938 141.711917 
" style="fill:none;stroke:#1f77b4;stroke-width:1.5;"/>
    <path clip-path="url(#p8d46d93b2b)" d="M 38.5625 231.112575 
L 38.5625 97.27438 
L 276.324219 97.27438 
L 276.324219 121.334938 
" style="fill:none;stroke:#1f77b4;stroke-width:1.5;"/>
    <path clip-path="url(#p8d46d93b2b)" d="M 947.5625 294.118125 
L 947.5625 89.926905 
L 1012.53125 89.926905 
L 1012.53125 173.391908 
" style="fill:none;stroke:#1f77b4;stroke-width:1.5;"/>
    <path clip-path="url(#p8d46d93b2b)" d="M 157.443359 97.27438 
L 157.443359 35.260982 
L 980.046875 35.260982 
L 980.046875 89.926905 
" style="fill:none;stroke:#1f77b4;stroke-width:1.5;"/>
   </g>
   <g id="patch_3">
    <path d="M 20.5625 294.118125 
L 20.5625 22.318125 
" style="fill:none;stroke:#000000;stroke-linecap:square;stroke-linejoin:miter;stroke-width:0.8;"/>
   </g>
   <g id="patch_4">
    <path d="M 1136.5625 294.118125 
L 1136.5625 22.318125 
" style="fill:none;stroke:#000000;stroke-linecap:square;stroke-linejoin:miter;stroke-width:0.8;"/>
   </g>
   <g id="patch_5">
    <path d="M 20.5625 294.118125 
L 1136.5625 294.118125 
" style="fill:none;stroke:#000000;stroke-linecap:square;stroke-linejoin:miter;stroke-width:0.8;"/>
   </g>
   <g id="patch_6">
    <path d="M 20.5625 22.318125 
L 1136.5625 22.318125 
" style="fill:none;stroke:#000000;stroke-linecap:square;stroke-linejoin:miter;stroke-width:0.8;"/>
   </g>
   <g id="text_71">
    <!-- Complete Clustering by Type -->
    <g transform="translate(492.21125 16.318125)scale(0.12 -0.12)">
     <defs>
      <path d="M 52 44.1875 
Q 55.375 50.25 60.0625 53.125 
Q 64.75 56 71.09375 56 
Q 79.640625 56 84.28125 50.015625 
Q 88.921875 44.046875 88.921875 33.015625 
L 88.921875 0 
L 79.890625 0 
L 79.890625 32.71875 
Q 79.890625 40.578125 77.09375 44.375 
Q 74.3125 48.1875 68.609375 48.1875 
Q 61.625 48.1875 57.5625 43.546875 
Q 53.515625 38.921875 53.515625 30.90625 
L 53.515625 0 
L 44.484375 0 
L 44.484375 32.71875 
Q 44.484375 40.625 41.703125 44.40625 
Q 38.921875 48.1875 33.109375 48.1875 
Q 26.21875 48.1875 22.15625 43.53125 
Q 18.109375 38.875 18.109375 30.90625 
L 18.109375 0 
L 9.078125 0 
L 9.078125 54.6875 
L 18.109375 54.6875 
L 18.109375 46.1875 
Q 21.1875 51.21875 25.484375 53.609375 
Q 29.78125 56 35.6875 56 
Q 41.65625 56 45.828125 52.96875 
Q 50 49.953125 52 44.1875 
z
" id="DejaVuSans-109"/>
      <path d="M 18.109375 8.203125 
L 18.109375 -20.796875 
L 9.078125 -20.796875 
L 9.078125 54.6875 
L 18.109375 54.6875 
L 18.109375 46.390625 
Q 20.953125 51.265625 25.265625 53.625 
Q 29.59375 56 35.59375 56 
Q 45.5625 56 51.78125 48.09375 
Q 58.015625 40.1875 58.015625 27.296875 
Q 58.015625 14.40625 51.78125 6.484375 
Q 45.5625 -1.421875 35.59375 -1.421875 
Q 29.59375 -1.421875 25.265625 0.953125 
Q 20.953125 3.328125 18.109375 8.203125 
z
M 48.6875 27.296875 
Q 48.6875 37.203125 44.609375 42.84375 
Q 40.53125 48.484375 33.40625 48.484375 
Q 26.265625 48.484375 22.1875 42.84375 
Q 18.109375 37.203125 18.109375 27.296875 
Q 18.109375 17.390625 22.1875 11.75 
Q 26.265625 6.109375 33.40625 6.109375 
Q 40.53125 6.109375 44.609375 11.75 
Q 48.6875 17.390625 48.6875 27.296875 
z
" id="DejaVuSans-112"/>
      <path d="M 18.3125 70.21875 
L 18.3125 54.6875 
L 36.8125 54.6875 
L 36.8125 47.703125 
L 18.3125 47.703125 
L 18.3125 18.015625 
Q 18.3125 11.328125 20.140625 9.421875 
Q 21.96875 7.515625 27.59375 7.515625 
L 36.8125 7.515625 
L 36.8125 0 
L 27.59375 0 
Q 17.1875 0 13.234375 3.875 
Q 9.28125 7.765625 9.28125 18.015625 
L 9.28125 47.703125 
L 2.6875 47.703125 
L 2.6875 54.6875 
L 9.28125 54.6875 
L 9.28125 70.21875 
z
" id="DejaVuSans-116"/>
      <path d="M 8.5 21.578125 
L 8.5 54.6875 
L 17.484375 54.6875 
L 17.484375 21.921875 
Q 17.484375 14.15625 20.5 10.265625 
Q 23.53125 6.390625 29.59375 6.390625 
Q 36.859375 6.390625 41.078125 11.03125 
Q 45.3125 15.671875 45.3125 23.6875 
L 45.3125 54.6875 
L 54.296875 54.6875 
L 54.296875 0 
L 45.3125 0 
L 45.3125 8.40625 
Q 42.046875 3.421875 37.71875 1 
Q 33.40625 -1.421875 27.6875 -1.421875 
Q 18.265625 -1.421875 13.375 4.4375 
Q 8.5 10.296875 8.5 21.578125 
z
M 31.109375 56 
z
" id="DejaVuSans-117"/>
      <path d="M 41.109375 46.296875 
Q 39.59375 47.171875 37.8125 47.578125 
Q 36.03125 48 33.890625 48 
Q 26.265625 48 22.1875 43.046875 
Q 18.109375 38.09375 18.109375 28.8125 
L 18.109375 0 
L 9.078125 0 
L 9.078125 54.6875 
L 18.109375 54.6875 
L 18.109375 46.1875 
Q 20.953125 51.171875 25.484375 53.578125 
Q 30.03125 56 36.53125 56 
Q 37.453125 56 38.578125 55.875 
Q 39.703125 55.765625 41.0625 55.515625 
z
" id="DejaVuSans-114"/>
      <path d="M 54.890625 33.015625 
L 54.890625 0 
L 45.90625 0 
L 45.90625 32.71875 
Q 45.90625 40.484375 42.875 44.328125 
Q 39.84375 48.1875 33.796875 48.1875 
Q 26.515625 48.1875 22.3125 43.546875 
Q 18.109375 38.921875 18.109375 30.90625 
L 18.109375 0 
L 9.078125 0 
L 9.078125 54.6875 
L 18.109375 54.6875 
L 18.109375 46.1875 
Q 21.34375 51.125 25.703125 53.5625 
Q 30.078125 56 35.796875 56 
Q 45.21875 56 50.046875 50.171875 
Q 54.890625 44.34375 54.890625 33.015625 
z
" id="DejaVuSans-110"/>
      <path d="M 45.40625 27.984375 
Q 45.40625 37.75 41.375 43.109375 
Q 37.359375 48.484375 30.078125 48.484375 
Q 22.859375 48.484375 18.828125 43.109375 
Q 14.796875 37.75 14.796875 27.984375 
Q 14.796875 18.265625 18.828125 12.890625 
Q 22.859375 7.515625 30.078125 7.515625 
Q 37.359375 7.515625 41.375 12.890625 
Q 45.40625 18.265625 45.40625 27.984375 
z
M 54.390625 6.78125 
Q 54.390625 -7.171875 48.1875 -13.984375 
Q 42 -20.796875 29.203125 -20.796875 
Q 24.46875 -20.796875 20.265625 -20.09375 
Q 16.0625 -19.390625 12.109375 -17.921875 
L 12.109375 -9.1875 
Q 16.0625 -11.328125 19.921875 -12.34375 
Q 23.78125 -13.375 27.78125 -13.375 
Q 36.625 -13.375 41.015625 -8.765625 
Q 45.40625 -4.15625 45.40625 5.171875 
L 45.40625 9.625 
Q 42.625 4.78125 38.28125 2.390625 
Q 33.9375 0 27.875 0 
Q 17.828125 0 11.671875 7.65625 
Q 5.515625 15.328125 5.515625 27.984375 
Q 5.515625 40.671875 11.671875 48.328125 
Q 17.828125 56 27.875 56 
Q 33.9375 56 38.28125 53.609375 
Q 42.625 51.21875 45.40625 46.390625 
L 45.40625 54.6875 
L 54.390625 54.6875 
z
" id="DejaVuSans-103"/>
      <path d="M 48.6875 27.296875 
Q 48.6875 37.203125 44.609375 42.84375 
Q 40.53125 48.484375 33.40625 48.484375 
Q 26.265625 48.484375 22.1875 42.84375 
Q 18.109375 37.203125 18.109375 27.296875 
Q 18.109375 17.390625 22.1875 11.75 
Q 26.265625 6.109375 33.40625 6.109375 
Q 40.53125 6.109375 44.609375 11.75 
Q 48.6875 17.390625 48.6875 27.296875 
z
M 18.109375 46.390625 
Q 20.953125 51.265625 25.265625 53.625 
Q 29.59375 56 35.59375 56 
Q 45.5625 56 51.78125 48.09375 
Q 58.015625 40.1875 58.015625 27.296875 
Q 58.015625 14.40625 51.78125 6.484375 
Q 45.5625 -1.421875 35.59375 -1.421875 
Q 29.59375 -1.421875 25.265625 0.953125 
Q 20.953125 3.328125 18.109375 8.203125 
L 18.109375 0 
L 9.078125 0 
L 9.078125 75.984375 
L 18.109375 75.984375 
z
" id="DejaVuSans-98"/>
      <path d="M 32.171875 -5.078125 
Q 28.375 -14.84375 24.75 -17.8125 
Q 21.140625 -20.796875 15.09375 -20.796875 
L 7.90625 -20.796875 
L 7.90625 -13.28125 
L 13.1875 -13.28125 
Q 16.890625 -13.28125 18.9375 -11.515625 
Q 21 -9.765625 23.484375 -3.21875 
L 25.09375 0.875 
L 2.984375 54.6875 
L 12.5 54.6875 
L 29.59375 11.921875 
L 46.6875 54.6875 
L 56.203125 54.6875 
z
" id="DejaVuSans-121"/>
      <path d="M -0.296875 72.90625 
L 61.375 72.90625 
L 61.375 64.59375 
L 35.5 64.59375 
L 35.5 0 
L 25.59375 0 
L 25.59375 64.59375 
L -0.296875 64.59375 
z
" id="DejaVuSans-84"/>
     </defs>
     <use xlink:href="#DejaVuSans-67"/>
     <use x="69.824219" xlink:href="#DejaVuSans-111"/>
     <use x="131.005859" xlink:href="#DejaVuSans-109"/>
     <use x="228.417969" xlink:href="#DejaVuSans-112"/>
     <use x="291.894531" xlink:href="#DejaVuSans-108"/>
     <use x="319.677734" xlink:href="#DejaVuSans-101"/>
     <use x="381.201172" xlink:href="#DejaVuSans-116"/>
     <use x="420.410156" xlink:href="#DejaVuSans-101"/>
     <use x="481.933594" xlink:href="#DejaVuSans-32"/>
     <use x="513.720703" xlink:href="#DejaVuSans-67"/>
     <use x="583.544922" xlink:href="#DejaVuSans-108"/>
     <use x="611.328125" xlink:href="#DejaVuSans-117"/>
     <use x="674.707031" xlink:href="#DejaVuSans-115"/>
     <use x="726.806641" xlink:href="#DejaVuSans-116"/>
     <use x="766.015625" xlink:href="#DejaVuSans-101"/>
     <use x="827.539062" xlink:href="#DejaVuSans-114"/>
     <use x="868.652344" xlink:href="#DejaVuSans-105"/>
     <use x="896.435547" xlink:href="#DejaVuSans-110"/>
     <use x="959.814453" xlink:href="#DejaVuSans-103"/>
     <use x="1023.291016" xlink:href="#DejaVuSans-32"/>
     <use x="1055.078125" xlink:href="#DejaVuSans-98"/>
     <use x="1118.554688" xlink:href="#DejaVuSans-121"/>
     <use x="1177.734375" xlink:href="#DejaVuSans-32"/>
     <use x="1209.521484" xlink:href="#DejaVuSans-84"/>
     <use x="1254.980469" xlink:href="#DejaVuSans-121"/>
     <use x="1314.160156" xlink:href="#DejaVuSans-112"/>
     <use x="1377.636719" xlink:href="#DejaVuSans-101"/>
    </g>
   </g>
  </g>
 </g>
 <defs>
  <clipPath id="p8d46d93b2b">
   <rect height="271.8" width="1116" x="20.5625" y="22.318125"/>
  </clipPath>
 </defs>
</svg>
